HIERARCHY
ROOT Pelvis
{
	OFFSET 0.000000 0.000000 0.000000
	CHANNELS 6 Xposition Yposition Zposition Xrotation Yrotation Zrotation
	JOINT LeftUpLeg_virtual
	{
		OFFSET 0.000000 0.000000 0.000000
		CHANNELS 3 Xrotation Yrotation Zrotation
		JOINT LeftUpLeg
		{
			OFFSET 18.735201 -5.666702 -4.541200
			CHANNELS 3 Xrotation Yrotation Zrotation
			JOINT LeftLeg
			{
				OFFSET -0.021200 -31.938179 0.493100
				CHANNELS 3 Xrotation Yrotation Zrotation
				JOINT LeftFoot
				{
					OFFSET 0.021200 -31.938179 -4.336299
					CHANNELS 3 Xrotation Yrotation Zrotation
					JOINT LeftToeBase
					{
						OFFSET 0.943001 -26.722000 15.023500
						CHANNELS 3 Xrotation Yrotation Zrotation
						End Site
						{
							OFFSET 0 0 0
						}
					}
				}
			}
		}
	}
	JOINT RightUpLeg_virtual
	{
		OFFSET 0.000000 0.000000 0.000000
		CHANNELS 3 Xrotation Yrotation Zrotation
		JOINT RightUpLeg
		{
			OFFSET -18.735201 -5.666702 -4.541200
			CHANNELS 3 Xrotation Yrotation Zrotation
			JOINT RightLeg
			{
				OFFSET 0.018946 -31.938133 0.493100
				CHANNELS 3 Xrotation Yrotation Zrotation
				JOINT RightFoot
				{
					OFFSET -0.018946 -31.938126 -4.336299
					CHANNELS 3 Xrotation Yrotation Zrotation
					JOINT RightToeBase
					{
						OFFSET -0.943001 -26.722004 15.023500
						CHANNELS 3 Xrotation Yrotation Zrotation
						End Site
						{
							OFFSET 0 0 0
						}
					}
				}
			}
		}
	}
	JOINT Hips_virtual
	{
		OFFSET 0.000000 0.000000 0.000000
		CHANNELS 3 Xrotation Yrotation Zrotation
		JOINT Hips
		{
			OFFSET -0.000000 -0.000000 -0.000000
			CHANNELS 3 Xrotation Yrotation Zrotation
			JOINT Spine
			{
				OFFSET 0.000000 10.199997 -0.299500
				CHANNELS 3 Xrotation Yrotation Zrotation
				JOINT Spine1
				{
					OFFSET 0.000000 11.900002 -1.516600
					CHANNELS 3 Xrotation Yrotation Zrotation
					JOINT Spine2
					{
						OFFSET 0.000000 13.600006 -2.842500
						CHANNELS 3 Xrotation Yrotation Zrotation
						JOINT Neck_virtual
						{
							OFFSET 0.000000 0.000000 0.000000
							CHANNELS 3 Xrotation Yrotation Zrotation
							JOINT Neck
							{
								OFFSET 0.000000 9.624100 -2.890100
								CHANNELS 3 Xrotation Yrotation Zrotation
								JOINT Head
								{
									OFFSET 0.000000 14.068802 -1.351900
									CHANNELS 3 Xrotation Yrotation Zrotation
									End Site
									{
										OFFSET 0 0 0
									}
								}
							}
						}
						JOINT LeftShoulder_virtual
						{
							OFFSET 0.000000 0.000000 0.000000
							CHANNELS 3 Xrotation Yrotation Zrotation
							JOINT LeftShoulder
							{
								OFFSET 15.263000 10.923401 -0.547700
								CHANNELS 3 Xrotation Yrotation Zrotation
								JOINT LeftArm
								{
									OFFSET 25.438599 -2.830597 -13.032500
									CHANNELS 3 Xrotation Yrotation Zrotation
									JOINT LeftForeArm
									{
										OFFSET 29.960503 0.000000 0.000000
										CHANNELS 3 Xrotation Yrotation Zrotation
										JOINT LeftHand
										{
											OFFSET 27.849251 0.000000 0.000000
											CHANNELS 3 Xrotation Yrotation Zrotation
											End Site
											{
												OFFSET 0 0 0
											}
										}
									}
								}
							}
						}
						JOINT RightShoulder_virtual
						{
							OFFSET 0.000000 0.000000 0.000000
							CHANNELS 3 Xrotation Yrotation Zrotation
							JOINT RightShoulder
							{
								OFFSET -15.263000 10.923401 -0.547700
								CHANNELS 3 Xrotation Yrotation Zrotation
								JOINT RightArm
								{
									OFFSET -25.438599 -2.830597 -13.032500
									CHANNELS 3 Xrotation Yrotation Zrotation
									JOINT RightForeArm
									{
										OFFSET -29.960503 0.000000 0.000000
										CHANNELS 3 Xrotation Yrotation Zrotation
										JOINT RightHand
										{
											OFFSET -27.849251 0.000000 0.000000
											CHANNELS 3 Xrotation Yrotation Zrotation
											End Site
											{
												OFFSET 0 0 0
											}
										}
									}
								}
							}
						}
					}
				}
			}
		}
	}
}
MOTION
Frames: 12
Frame Time: 0.03333333
1.612918 43.625557 0.490063 0.000000 0.000000 0.000000 -17.247355 -24.191120 18.691967 -66.947212 -9.770636 34.270262 82.865146 0.989842 -6.010219 22.852355 2.486092 -12.872332 0.000000 0.000000 0.000000 2.473143 -18.641659 0.760629 -30.842228 -9.078965 -17.162379 98.773859 8.348731 1.510982 29.540718 9.238995 24.265444 0.000000 0.000000 0.000000 -2.444441 -12.640323 1.794305 -2.983147 -1.850636 7.039785 5.068910 -1.367720 -4.234556 2.096251 -0.256825 -2.931038 0.000000 0.000000 0.000000 2.285532 -0.186818 -1.164354 -0.944462 0.561739 -0.401072 0.000000 0.000000 0.000000 2.043910 -0.213301 -0.721269 0.406614 -3.175730 -6.245070 -10.066249 -21.278741 -53.550196 2.704464 -62.311187 -1.992158 0.000000 0.000000 0.000000 3.916640 0.419377 -1.068488 2.594193 8.521710 1.018054 -4.967303 29.740600 41.090524 39.520772 85.760019 -36.613082 0.000000 0.000000 0.000000 
1.902743 42.966995 0.045717 0.000000 0.000000 0.000000 -18.501196 -25.919902 19.688384 -68.148185 -11.159759 34.764194 84.695698 0.380369 -6.249547 24.749935 1.908471 -13.915677 0.000000 0.000000 0.000000 1.419310 -17.380934 -0.664134 -31.389531 -8.175194 -17.946372 99.986183 8.994152 2.059055 30.467623 9.760982 25.780506 0.000000 0.000000 0.000000 -3.126884 -14.834203 1.424477 -1.805151 -1.400037 7.817547 5.028744 -2.060631 -5.119950 2.196337 -0.304822 -3.104045 0.000000 0.000000 0.000000 2.593408 -0.494849 -1.327326 -0.843653 0.657718 -0.274232 0.000000 0.000000 0.000000 1.451840 -0.412086 -0.741169 0.822939 -1.682033 -5.663339 -11.118713 -20.916305 -54.294833 3.043032 -62.619857 -1.809392 0.000000 0.000000 0.000000 3.876746 0.401032 -1.318431 3.023353 8.488515 0.775903 -2.394143 30.617423 37.532866 92.900511 87.484717 -90.096438 0.000000 0.000000 0.000000 
2.151697 43.522694 -1.801298 0.000000 0.000000 0.000000 -19.444971 -23.181365 19.968219 -68.331835 -10.805127 34.925189 86.712421 0.157322 -6.511039 27.307866 1.668575 -14.611431 0.000000 0.000000 0.000000 1.156531 -14.959695 -0.833314 -31.369013 -7.433021 -17.709801 100.896743 8.760927 2.199902 31.535687 9.584818 25.600056 0.000000 0.000000 0.000000 -1.151046 -15.145837 2.568363 -2.774902 -1.104720 6.288153 5.245293 -2.540143 -5.654724 1.447781 -0.489257 -2.926614 0.000000 0.000000 0.000000 2.759050 -0.796640 -1.315353 -1.018258 0.658918 -0.263006 0.000000 0.000000 0.000000 1.252447 -0.233185 -0.397072 0.596657 -1.616602 -4.716336 -11.813377 -18.929084 -53.538120 2.875178 -59.580731 -1.632186 0.000000 0.000000 0.000000 3.728733 0.497379 -1.427421 3.337291 8.081842 0.522094 -0.632617 31.913243 36.816673 142.677010 86.130516 -140.314489 0.000000 0.000000 0.000000 
1.839186 43.352421 -1.171267 0.000000 0.000000 0.000000 -19.685841 -24.448568 20.797709 -68.912763 -11.596996 35.539141 87.071347 0.378320 -6.607111 27.600456 1.963003 -14.569996 0.000000 0.000000 0.000000 2.184002 -15.055706 0.205971 -29.992313 -7.909002 -16.631593 100.541675 8.977969 2.792786 31.081076 9.465397 26.650430 0.000000 0.000000 0.000000 -2.027627 -15.826223 1.817234 1.094616 -3.114492 6.083217 4.217857 -3.126733 -5.869901 1.759939 -0.382469 -3.630100 0.000000 0.000000 0.000000 2.780498 -0.848308 -1.565149 -1.017099 0.734058 -0.308760 0.000000 0.000000 0.000000 1.968437 -0.516077 -0.735584 0.752116 -0.853641 -4.635897 -12.802058 -20.367779 -55.303850 2.105563 -61.587747 -2.632711 0.000000 0.000000 0.000000 3.950023 0.669345 -1.464855 3.207441 8.452296 1.710062 -3.402623 32.024230 36.150900 163.635760 84.200755 -161.744617 0.000000 0.000000 0.000000 
1.799171 43.301571 -1.852678 0.000000 0.000000 0.000000 -18.171223 -23.689922 21.466946 -67.643195 -11.194219 36.185779 87.305739 -0.011528 -6.891928 27.749539 1.655311 -15.371298 0.000000 0.000000 0.000000 3.188912 -13.893517 0.248947 -28.309630 -7.849048 -16.350344 99.348148 8.962100 2.604996 30.559240 9.490457 26.215376 0.000000 0.000000 0.000000 -1.791066 -15.962123 2.050844 -3.490193 -5.472513 6.782686 5.290110 -3.178307 -6.662363 1.615111 -0.607055 -3.627344 0.000000 0.000000 0.000000 3.508745 -0.925031 -1.742393 -1.104185 0.997167 -0.258811 0.000000 0.000000 0.000000 2.228809 -0.932458 -0.916540 0.602373 -0.568614 -4.970287 -14.414139 -19.794180 -55.352621 -0.011727 -61.091329 -4.355595 0.000000 0.000000 0.000000 3.899163 0.476176 -1.307732 3.644618 8.161722 1.356450 0.325279 29.854330 33.360399 169.616369 83.457549 -167.597092 0.000000 0.000000 0.000000 
2.065160 43.238003 -1.362598 0.000000 0.000000 0.000000 -18.316267 -24.524305 20.337401 -68.102539 -10.995934 35.392784 87.188198 -0.290268 -7.006760 27.246931 1.376306 -15.901556 0.000000 0.000000 0.000000 4.416271 -11.309299 0.316352 -26.345829 -7.428640 -16.096514 98.566706 9.073361 2.117405 29.990223 9.781146 25.654361 0.000000 0.000000 0.000000 -2.422088 -17.610816 2.195046 2.148284 0.162348 6.051215 4.190392 -3.384903 -6.692122 2.151939 -0.267228 -3.685743 0.000000 0.000000 0.000000 2.685151 -0.703810 -1.856443 -0.992226 0.966470 -0.217555 0.000000 0.000000 0.000000 2.226542 -0.778452 -1.054741 1.241840 -0.623479 -3.930507 -12.793109 -19.900979 -55.753116 2.068987 -61.925268 -3.220999 0.000000 0.000000 0.000000 4.064654 0.701264 -1.289703 3.877778 8.586791 1.488202 -1.869797 32.434772 33.164400 167.442866 83.244454 -164.913032 0.000000 0.000000 0.000000 
1.701254 44.026489 -1.523655 0.000000 0.000000 0.000000 -16.648982 -26.154343 19.439784 -66.825567 -10.590493 34.833733 87.247791 0.184873 -6.590132 27.304827 1.733612 -15.004221 0.000000 0.000000 0.000000 5.436244 -10.931384 1.299192 -25.202285 -7.616568 -15.273466 98.777424 9.082801 1.971807 30.260962 9.902081 25.422726 0.000000 0.000000 0.000000 -2.630946 -17.968966 2.232975 1.929100 -2.344066 6.851604 3.879392 -3.005354 -6.824477 2.493748 -0.892173 -3.825933 0.000000 0.000000 0.000000 3.248809 -0.851779 -1.910100 -0.853720 0.900935 -0.202667 0.000000 0.000000 0.000000 2.096541 -0.734403 -1.260595 1.201612 -1.078979 -3.913907 -10.971832 -20.819537 -55.927034 2.012734 -63.023699 -3.916107 0.000000 0.000000 0.000000 4.477917 0.708010 -1.244755 4.234108 7.745919 1.975003 -2.676876 32.835725 34.600543 174.389510 82.774332 -171.173734 0.000000 0.000000 0.000000 
1.960003 43.998375 -1.843988 0.000000 0.000000 0.000000 -17.011428 -25.043561 20.356376 -67.094137 -10.769169 35.471413 86.822824 0.730579 -6.577727 27.521573 2.318070 -14.633100 0.000000 0.000000 0.000000 4.569332 -11.828008 0.492217 -25.995674 -7.546028 -16.099126 97.582544 8.951269 2.105615 29.573155 9.642375 25.259622 0.000000 0.000000 0.000000 -2.982741 -20.554548 2.295784 4.822126 3.191030 7.493050 3.784975 -3.105404 -6.143827 1.813870 -0.856654 -3.816950 0.000000 0.000000 0.000000 2.957768 -1.053463 -1.969419 -1.052801 0.871316 -0.073841 0.000000 0.000000 0.000000 2.361571 -1.140230 -1.211002 1.201773 -0.343512 -3.149568 -9.287952 -21.833589 -54.701052 3.861779 -65.437064 -1.751833 0.000000 0.000000 0.000000 4.895005 0.720939 -1.413882 4.100667 7.195684 2.321374 -2.366512 30.075679 33.913006 178.830800 81.381670 -175.774522 0.000000 0.000000 0.000000 
2.160800 43.451309 -1.990454 0.000000 0.000000 0.000000 -16.706668 -25.144247 20.183276 -66.979308 -10.617364 35.463852 87.027989 0.277121 -6.795601 27.219827 1.925237 -15.413874 0.000000 0.000000 0.000000 4.097746 -11.963586 0.739304 -26.748472 -7.560402 -15.946397 97.698090 8.690851 1.920639 29.320322 9.330594 24.734697 0.000000 0.000000 0.000000 -2.609044 -19.711917 2.800867 3.594819 4.004732 6.887378 4.016321 -3.000113 -6.476233 2.151534 -0.771397 -3.785472 0.000000 0.000000 0.000000 2.847060 -1.005818 -2.062769 -1.089915 0.866971 -0.105493 0.000000 0.000000 0.000000 2.060130 -0.967042 -1.394174 1.199061 -0.098528 -3.465758 -10.246517 -21.468538 -54.814788 3.058865 -65.312345 -2.560188 0.000000 0.000000 0.000000 4.806452 0.620700 -1.497043 4.479873 7.025246 1.632981 -3.965346 29.747557 34.928638 -178.029673 81.536517 -178.805009 0.000000 0.000000 0.000000 
1.771105 43.946445 -2.743876 0.000000 0.000000 0.000000 -17.064587 -24.528521 20.017063 -67.366607 -10.432095 35.332511 86.013754 0.005581 -6.681061 26.047852 1.612891 -15.558599 0.000000 0.000000 0.000000 3.627598 -11.757683 1.086010 -27.453071 -7.523387 -15.570205 97.462408 8.407715 2.230917 29.087781 8.821809 24.780276 0.000000 0.000000 0.000000 -2.431999 -19.914127 3.263619 4.378611 4.916726 7.294834 4.351424 -3.234941 -6.475372 2.331062 -0.892029 -3.817500 0.000000 0.000000 0.000000 3.269378 -1.083723 -2.173542 -0.876520 0.908358 -0.182159 0.000000 0.000000 0.000000 2.081375 -1.155441 -1.329759 1.381491 0.063898 -3.704515 -9.883099 -21.774868 -54.540918 2.525927 -66.166146 -2.944622 0.000000 0.000000 0.000000 5.186836 0.730805 -1.312651 4.575643 7.063615 1.833203 -4.687115 29.356501 35.249770 -177.647210 80.153479 -179.098420 0.000000 0.000000 0.000000 
1.497795 44.136318 -2.439819 0.000000 0.000000 0.000000 -17.230260 -23.431591 20.279018 -67.471655 -10.278894 35.551261 85.854870 0.352250 -6.599643 25.824039 1.951616 -15.163527 0.000000 0.000000 0.000000 3.996158 -11.226427 1.007243 -26.915744 -7.451623 -15.742703 97.808808 8.360181 1.919746 29.050024 8.893145 24.286671 0.000000 0.000000 0.000000 -2.730760 -19.096719 3.107203 4.488239 4.059438 7.238185 4.545449 -3.275772 -6.638811 2.333420 -0.882672 -3.736087 0.000000 0.000000 0.000000 3.126502 -1.075807 -2.153393 -0.931214 0.945358 -0.103608 0.000000 0.000000 0.000000 2.035469 -1.161282 -1.401388 1.269125 0.531530 -3.848751 -11.826865 -20.370508 -54.494948 1.541498 -66.164644 -3.293668 0.000000 0.000000 0.000000 5.145310 0.701289 -1.289627 4.782880 6.783259 2.533126 -5.017747 28.824915 35.615280 -175.624094 79.356963 178.817112 0.000000 0.000000 0.000000 
2.113918 44.273048 -2.445381 0.000000 0.000000 0.000000 -16.522993 -24.340916 20.211059 -66.940676 -10.298256 35.524610 85.416495 0.161483 -6.849772 25.400181 1.860186 -15.786644 0.000000 0.000000 0.000000 4.752927 -11.410511 1.007076 -25.886980 -7.651304 -15.942444 96.826865 8.335124 2.091897 27.996025 8.561964 24.436277 0.000000 0.000000 0.000000 -3.204693 -20.191670 3.198017 4.823502 5.992581 6.607067 4.516650 -3.085223 -6.534103 2.301139 -0.857244 -3.740650 0.000000 0.000000 0.000000 3.398689 -0.937613 -2.069902 -0.872589 1.007755 -0.037042 0.000000 0.000000 0.000000 2.136912 -1.121390 -1.336931 1.215762 0.313937 -3.878927 -11.498064 -21.003718 -54.625848 0.799989 -66.820533 -3.805932 0.000000 0.000000 0.000000 5.319625 0.852414 -1.151178 4.605308 7.020102 3.076087 -6.263549 27.510002 36.167563 -173.601238 80.081646 176.702390 0.000000 0.000000 0.000000 
